<svg xmlns="http://www.w3.org/2000/svg" xmlns:xlink="http://www.w3.org/1999/xlink" width="20" height="20" viewBox="0 0 20 20">
  <defs>
    <clipPath id="clip-path">
      <rect id="Rectángulo_14" data-name="Rectángulo 14" width="20" height="20" transform="translate(-0.182)" fill="#fff"/>
    </clipPath>
  </defs>
  <g id="icon-wordpress" transform="translate(0.182)" clip-path="url(#clip-path)">
    <path id="redes-sociales" d="M10,0A10,10,0,1,0,20,10,10.011,10.011,0,0,0,10,0ZM1.008,10a8.919,8.919,0,0,1,.778-3.658l4.29,11.75A8.995,8.995,0,0,1,1.008,10ZM10,18.992a8.935,8.935,0,0,1-2.54-.368l2.7-7.838,2.762,7.573a1.352,1.352,0,0,0,.064.125A9,9,0,0,1,10,18.992Zm1.237-13.2h0c.54-.028,1.028-.084,1.028-.084a.372.372,0,0,0-.057-.743s-1.456.113-2.4.113c-.883,0-2.367-.113-2.367-.113A.372.372,0,0,0,7.39,5.7s.459.057.943.084l1.4,3.838-1.968,5.9L4.492,5.787C5.032,5.758,5.52,5.7,5.52,5.7a.372.372,0,0,0-.057-.742s-1.456.113-2.4.113c-.169,0-.368,0-.581-.012A8.993,8.993,0,0,1,16.073,3.367a1.111,1.111,0,0,0-.117-.007,1.556,1.556,0,0,0-1.508,1.6,4.214,4.214,0,0,0,.883,2.109,4.72,4.72,0,0,1,.742,2.48,10.787,10.787,0,0,1-.686,2.908l-.9,3Zm6.654-.1a8.993,8.993,0,0,1-3.371,12.085h0l2.746-7.94a8.513,8.513,0,0,0,.686-3.222,6.659,6.659,0,0,0-.06-.923Z" transform="translate(0.666 -0.26)"/>
  </g>
</svg>
