<!--?xml version="1.0" encoding="utf-8"?-->
<!-- Generator: Adobe Illustrator 21.1.0, SVG Export Plug-In . SVG Version: 6.00 Build 0)  -->
<svg version="1.1" id="_x31_0" xmlns="http://www.w3.org/2000/svg" xmlns:xlink="http://www.w3.org/1999/xlink" x="0px" y="0px" viewBox="0 0 512 512" style="width: 256px; height: 256px; opacity: 1;" xml:space="preserve">
<style type="text/css">
	.st0{fill:#374149;}
</style>
<g>
	<path class="st0" d="M256,0C114.844,0,0,114.84,0,256s114.844,256,256,256c141.16,0,256-114.84,256-256
		c0-54.003-16.808-104.154-45.467-145.498C420.28,43.779,343.157,0,256,0z M256,455.11c-109.785,0-199.11-89.317-199.11-199.11
		S146.215,56.886,256,56.886c63.25,0,119.709,29.646,156.208,75.773c26.855,33.939,42.906,76.801,42.906,123.341
		C455.114,365.793,365.789,455.11,256,455.11z" style="fill: rgb(0, 0, 0);"></path>
	<path class="st0" d="M332.168,221.05H284.07l-7.793-0.011l14.986-81.508l2.197-11.949l3.133-16.977h-0.011l0.011-0.082h-21.129
		L173.332,282.782c-2.988,5.038,0.641,11.414,6.5,11.414h49.851l12.458,0.02l-21.894,85l-5.734,22.175h0.023l-0.023,0.082h25.195
		l98.984-169.043C341.645,227.39,338.008,221.05,332.168,221.05z" style="fill: rgb(0, 0, 0);"></path>
</g>
</svg>
