<svg xmlns="http://www.w3.org/2000/svg" xmlns:xlink="http://www.w3.org/1999/xlink" width="20" height="20" viewBox="0 0 20 20">
  <defs>
    <clipPath id="clip-path">
      <rect id="Rectángulo_9" data-name="Rectángulo 9" width="20" height="20" fill="#fff"/>
    </clipPath>
  </defs>
  <g id="icon-api" clip-path="url(#clip-path)">
    <g id="computadora" transform="translate(-0.501 -0.286)">
      <path id="Trazado_17" data-name="Trazado 17" d="M7.823,8.952V5.726a1.29,1.29,0,1,0-2.581,0V8.952h.645V7.661h1.29v1.29ZM5.887,7.016V5.726a.645.645,0,0,1,1.29,0v1.29Z" transform="translate(-1.371 -1.21)"/>
      <path id="Trazado_18" data-name="Trazado 18" d="M10.565,7.016a1.29,1.29,0,0,0,0-2.581H9.274V8.952h.645V7.016ZM9.919,5.081h.645a.645.645,0,0,1,0,1.29H9.919Z" transform="translate(-2.177 -1.21)"/>
      <path id="Trazado_19" data-name="Trazado 19" d="M12.9,8.306v.645h1.935V8.306h-.645V5.081h.645V4.435H12.9v.645h.645V8.306Z" transform="translate(-2.903 -1.21)"/>
      <path id="Trazado_20" data-name="Trazado 20" d="M20.4,13.885V11.438l-.85-.2a5.13,5.13,0,0,0-.445-1.075l.46-.743-1.73-1.73-.743.46a5.176,5.176,0,0,0-.6-.278,1.93,1.93,0,0,0-1.578-2.279c0-.01,0-.019,0-.029a3.229,3.229,0,0,0-3.226-3.226,3.184,3.184,0,0,0-1.176.223A4.188,4.188,0,0,0,2.677,4.294a2.58,2.58,0,0,0,.307,5.141h.645v3.672l-1.29.645v2.135h.645V14.151l1.29-.645V8.79H2.984A1.935,1.935,0,1,1,3.537,5l.184-.618a2.585,2.585,0,0,0-.4-.083,3.545,3.545,0,0,1,6.755-1.181l.141.306.3-.154a2.55,2.55,0,0,1,1.176-.286,2.584,2.584,0,0,1,2.581,2.581c0,.009,0,.019,0,.028a1.92,1.92,0,0,0-.827.351l.384.518A1.29,1.29,0,1,1,14.6,8.79H6.21v4.715l1.29.645v1.736h.645V13.752l-1.29-.645V9.435H9.842l.264.693a5.113,5.113,0,0,0-.465,1.11l-.85.2v2.446l.85.2a5.13,5.13,0,0,0,.445,1.075l-.46.743,1.73,1.73.743-.46a5.113,5.113,0,0,0,1.075.445l.2.85H15.82l.2-.85a5.131,5.131,0,0,0,1.075-.445l.743.46,1.73-1.73-.46-.743a5.113,5.113,0,0,0,.445-1.075Zm-1.378-.338-.047.192A4.481,4.481,0,0,1,18.456,15l-.1.169.4.641-1.007,1.007-.641-.4-.169.1a4.486,4.486,0,0,1-1.259.522l-.192.047-.172.733H13.885l-.173-.733-.192-.047a4.481,4.481,0,0,1-1.259-.522l-.169-.1-.641.4-1.007-1.007.4-.641-.1-.169a4.488,4.488,0,0,1-.522-1.259l-.047-.192-.733-.172V11.949l.733-.173.047-.192a4.478,4.478,0,0,1,.522-1.259l.082-.135-.287-.755h1.93a3.871,3.871,0,1,0,3.365-.442,1.952,1.952,0,0,0,.439-.517,4.5,4.5,0,0,1,.668.325l.169.1.641-.4L18.75,9.516l-.4.641.1.169a4.488,4.488,0,0,1,.522,1.259l.047.192.732.172v1.425ZM14.6,9.435a3.226,3.226,0,1,1-3.226,3.226A3.229,3.229,0,0,1,14.6,9.435Z" transform="translate(-0.403 -0.403)"/>
      <path id="Trazado_21" data-name="Trazado 21" d="M17.5,17.661a2.581,2.581,0,1,0-2.581-2.581A2.584,2.584,0,0,0,17.5,17.661Zm0-4.516a1.935,1.935,0,1,1-1.935,1.935A1.937,1.937,0,0,1,17.5,13.145Z" transform="translate(-3.306 -2.823)"/>
      <path id="Trazado_22" data-name="Trazado 22" d="M2.823,20.565h.645v.645H2.823Z" transform="translate(-0.887 -4.435)"/>
      <path id="Trazado_23" data-name="Trazado 23" d="M9.274,20.565h.645v.645H9.274Z" transform="translate(-2.177 -4.435)"/>
      <path id="Trazado_24" data-name="Trazado 24" d="M3.306,22.882v-.7H2.661v.7a.968.968,0,1,0,.645,0Zm-.323,1.231a.323.323,0,1,1,.323-.323A.323.323,0,0,1,2.984,24.113Z" transform="translate(-0.726 -4.758)"/>
      <path id="Trazado_25" data-name="Trazado 25" d="M9.758,22.882v-.7H9.113v.7a.968.968,0,1,0,.645,0Zm-.323,1.231a.323.323,0,1,1,.323-.323A.323.323,0,0,1,9.435,24.113Z" transform="translate(-2.016 -4.758)"/>
      <path id="Trazado_26" data-name="Trazado 26" d="M6.532,19.334V15.726H5.887v3.608a.968.968,0,1,0,.645,0ZM6.21,20.565a.323.323,0,1,1,.323-.323A.323.323,0,0,1,6.21,20.565Z" transform="translate(-1.371 -3.468)"/>
      <path id="Trazado_27" data-name="Trazado 27" d="M6.048,10.887h.645v.645H6.048Z" transform="translate(-1.532 -2.5)"/>
      <path id="Trazado_28" data-name="Trazado 28" d="M6.048,12.5h.645v.645H6.048Z" transform="translate(-1.532 -2.823)"/>
      <path id="Trazado_29" data-name="Trazado 29" d="M6.048,14.113h.645v.645H6.048Z" transform="translate(-1.532 -3.145)"/>
    </g>
  </g>
</svg>
